<svg xmlns="http://www.w3.org/2000/svg" width="1600" height="1304" viewBox="0 0 1600 1304">
<defs>
  <style>
    text { font-family: 'Segoe UI', system-ui, sans-serif; }
  </style>
  <linearGradient id="topGrad" x1="0" y1="0" x2="1600" y2="0" gradientUnits="userSpaceOnUse">
    <stop offset="0%" stop-color="#1e3a5f"/>
    <stop offset="100%" stop-color="#1a2a3a"/>
  </linearGradient>
</defs>
<rect width="1600" height="1304" fill="#0f172a"/><rect x="0" y="0" width="1600" height="64" rx="0" fill="url(#topGrad)" stroke="none" stroke-width="1.5"/><text x="20" y="40" font-size="26" fill="#f1f5f9" text-anchor="start" font-weight="700" font-family="'Segoe UI',system-ui,sans-serif">NanoOrch</text><text x="168" y="40" font-size="20" fill="#94a3b8" text-anchor="start" font-weight="400" font-family="'Segoe UI',system-ui,sans-serif">— End-to-End Architecture Flow</text><text x="1580" y="40" font-size="13" fill="#64748b" text-anchor="end" font-weight="400" font-family="'Segoe UI',system-ui,sans-serif">nanoorch.io</text><rect x="1312" y="100" width="292" height="88" rx="8" fill="#1e293b" stroke="#3b82f6" stroke-width="1.5"/><rect x="1312" y="100" width="4" height="88" rx="4" fill="#3b82f6"/><text x="1326" y="120" font-size="12" fill="#f1f5f9" text-anchor="start" font-weight="600" font-family="'Segoe UI',system-ui,sans-serif">Workspaces &amp; Tenancy</text><text x="1326" y="136" font-size="10.5" fill="#94a3b8" text-anchor="start" font-weight="normal" font-family="'Segoe UI',system-ui,sans-serif">• Multi-tenant isolation</text><text x="1326" y="152" font-size="10.5" fill="#94a3b8" text-anchor="start" font-weight="normal" font-family="'Segoe UI',system-ui,sans-serif">• Per-workspace secrets</text><text x="1326" y="168" font-size="10.5" fill="#94a3b8" text-anchor="start" font-weight="normal" font-family="'Segoe UI',system-ui,sans-serif">• Resource quotas</text><rect x="1312" y="198" width="292" height="88" rx="8" fill="#1e293b" stroke="#22c55e" stroke-width="1.5"/><rect x="1312" y="198" width="4" height="88" rx="4" fill="#22c55e"/><text x="1326" y="218" font-size="12" fill="#f1f5f9" text-anchor="start" font-weight="600" font-family="'Segoe UI',system-ui,sans-serif">3-Tier RBAC</text><text x="1326" y="234" font-size="10.5" fill="#94a3b8" text-anchor="start" font-weight="normal" font-family="'Segoe UI',system-ui,sans-serif">• SystemAdmin / OrgAdmin</text><text x="1326" y="250" font-size="10.5" fill="#94a3b8" text-anchor="start" font-weight="normal" font-family="'Segoe UI',system-ui,sans-serif">• WorkspaceMember</text><text x="1326" y="266" font-size="10.5" fill="#94a3b8" text-anchor="start" font-weight="normal" font-family="'Segoe UI',system-ui,sans-serif">• Per-resource ACLs</text><rect x="1312" y="296" width="292" height="88" rx="8" fill="#1e293b" stroke="#f97316" stroke-width="1.5"/><rect x="1312" y="296" width="4" height="88" rx="4" fill="#f97316"/><text x="1326" y="316" font-size="12" fill="#f1f5f9" text-anchor="start" font-weight="600" font-family="'Segoe UI',system-ui,sans-serif">Security</text><text x="1326" y="332" font-size="10.5" fill="#94a3b8" text-anchor="start" font-weight="normal" font-family="'Segoe UI',system-ui,sans-serif">• AES-256 credentials</text><text x="1326" y="348" font-size="10.5" fill="#94a3b8" text-anchor="start" font-weight="normal" font-family="'Segoe UI',system-ui,sans-serif">• HMAC webhook verify</text><text x="1326" y="364" font-size="10.5" fill="#94a3b8" text-anchor="start" font-weight="normal" font-family="'Segoe UI',system-ui,sans-serif">• Scrypt key derivation</text><rect x="1312" y="394" width="292" height="88" rx="8" fill="#1e293b" stroke="#a855f7" stroke-width="1.5"/><rect x="1312" y="394" width="4" height="88" rx="4" fill="#a855f7"/><text x="1326" y="414" font-size="12" fill="#f1f5f9" text-anchor="start" font-weight="600" font-family="'Segoe UI',system-ui,sans-serif">SSO &amp; Auth</text><text x="1326" y="430" font-size="10.5" fill="#94a3b8" text-anchor="start" font-weight="normal" font-family="'Segoe UI',system-ui,sans-serif">• Replit OAuth</text><text x="1326" y="446" font-size="10.5" fill="#94a3b8" text-anchor="start" font-weight="normal" font-family="'Segoe UI',system-ui,sans-serif">• Session management</text><text x="1326" y="462" font-size="10.5" fill="#94a3b8" text-anchor="start" font-weight="normal" font-family="'Segoe UI',system-ui,sans-serif">• JWT tokens</text><rect x="1312" y="492" width="292" height="88" rx="8" fill="#1e293b" stroke="#06b6d4" stroke-width="1.5"/><rect x="1312" y="492" width="4" height="88" rx="4" fill="#06b6d4"/><text x="1326" y="512" font-size="12" fill="#f1f5f9" text-anchor="start" font-weight="600" font-family="'Segoe UI',system-ui,sans-serif">Data Layer</text><text x="1326" y="528" font-size="10.5" fill="#94a3b8" text-anchor="start" font-weight="normal" font-family="'Segoe UI',system-ui,sans-serif">• PostgreSQL + Drizzle</text><text x="1326" y="544" font-size="10.5" fill="#94a3b8" text-anchor="start" font-weight="normal" font-family="'Segoe UI',system-ui,sans-serif">• Incremental migrations</text><text x="1326" y="560" font-size="10.5" fill="#94a3b8" text-anchor="start" font-weight="normal" font-family="'Segoe UI',system-ui,sans-serif">• JSONB config storage</text><rect x="1312" y="590" width="292" height="88" rx="8" fill="#1e293b" stroke="#ef4444" stroke-width="1.5"/><rect x="1312" y="590" width="4" height="88" rx="4" fill="#ef4444"/><text x="1326" y="610" font-size="12" fill="#f1f5f9" text-anchor="start" font-weight="600" font-family="'Segoe UI',system-ui,sans-serif">Infrastructure</text><text x="1326" y="626" font-size="10.5" fill="#94a3b8" text-anchor="start" font-weight="normal" font-family="'Segoe UI',system-ui,sans-serif">• Docker sandbox exec</text><text x="1326" y="642" font-size="10.5" fill="#94a3b8" text-anchor="start" font-weight="normal" font-family="'Segoe UI',system-ui,sans-serif">• Git clone engine</text><text x="1326" y="658" font-size="10.5" fill="#94a3b8" text-anchor="start" font-weight="normal" font-family="'Segoe UI',system-ui,sans-serif">• Health-check endpoints</text><rect x="1312" y="688" width="292" height="88" rx="8" fill="#1e293b" stroke="#84cc16" stroke-width="1.5"/><rect x="1312" y="688" width="4" height="88" rx="4" fill="#84cc16"/><text x="1326" y="708" font-size="12" fill="#f1f5f9" text-anchor="start" font-weight="600" font-family="'Segoe UI',system-ui,sans-serif">Channels</text><text x="1326" y="724" font-size="10.5" fill="#94a3b8" text-anchor="start" font-weight="normal" font-family="'Segoe UI',system-ui,sans-serif">• REST API</text><text x="1326" y="740" font-size="10.5" fill="#94a3b8" text-anchor="start" font-weight="normal" font-family="'Segoe UI',system-ui,sans-serif">• WebSocket stream</text><text x="1326" y="756" font-size="10.5" fill="#94a3b8" text-anchor="start" font-weight="normal" font-family="'Segoe UI',system-ui,sans-serif">• GitHub / GitLab OAuth</text><text x="1458" y="90" font-size="13" fill="#64748b" text-anchor="middle" font-weight="500" font-family="'Segoe UI',system-ui,sans-serif">Platform Services</text><rect x="20" y="100" width="1264" height="130" rx="10" fill="#1e3a5f" stroke="#3b82f6" stroke-width="1.5"/><circle cx="42" cy="124" r="16" fill="#3b82f6" opacity="0.2"/><text x="42" y="129" font-size="14" fill="#3b82f6" text-anchor="middle" font-weight="700" font-family="'Segoe UI',system-ui,sans-serif">1</text><text x="66" y="128" font-size="14" fill="#f1f5f9" text-anchor="start" font-weight="600" font-family="'Segoe UI',system-ui,sans-serif">Trigger Sources</text><line x1="32" y1="142" x2="1252" y2="142" stroke="#3b82f6" stroke-width="0.8" opacity="0.5"/><rect x="32" y="152" width="241" height="68" rx="6" fill="#1e3a5fdd" stroke="#3b82f6" stroke-width="1.5"/><circle cx="42" cy="186" r="3" fill="#3b82f6" opacity="0.8"/><text x="52" y="190" font-size="10.5" fill="#f1f5f9" text-anchor="start" font-weight="normal" font-family="'Segoe UI',system-ui,sans-serif">GitHub Webhook</text><rect x="281" y="152" width="241" height="68" rx="6" fill="#1e3a5fdd" stroke="#3b82f6" stroke-width="1.5"/><circle cx="291" cy="186" r="3" fill="#3b82f6" opacity="0.8"/><text x="301" y="190" font-size="10.5" fill="#f1f5f9" text-anchor="start" font-weight="normal" font-family="'Segoe UI',system-ui,sans-serif">GitLab Webhook</text><rect x="530" y="152" width="241" height="68" rx="6" fill="#1e3a5fdd" stroke="#3b82f6" stroke-width="1.5"/><circle cx="540" cy="186" r="3" fill="#3b82f6" opacity="0.8"/><text x="550" y="190" font-size="10.5" fill="#f1f5f9" text-anchor="start" font-weight="normal" font-family="'Segoe UI',system-ui,sans-serif">Manual API</text><rect x="779" y="152" width="241" height="68" rx="6" fill="#1e3a5fdd" stroke="#3b82f6" stroke-width="1.5"/><circle cx="789" cy="186" r="3" fill="#3b82f6" opacity="0.8"/><text x="799" y="190" font-size="10.5" fill="#f1f5f9" text-anchor="start" font-weight="normal" font-family="'Segoe UI',system-ui,sans-serif">Scheduled CRON</text><rect x="1028" y="152" width="241" height="68" rx="6" fill="#1e3a5fdd" stroke="#3b82f6" stroke-width="1.5"/><circle cx="1038" cy="186" r="3" fill="#3b82f6" opacity="0.8"/><text x="1048" y="190" font-size="10.5" fill="#f1f5f9" text-anchor="start" font-weight="normal" font-family="'Segoe UI',system-ui,sans-serif">Merge-Request Event</text><rect x="20" y="242" width="1264" height="130" rx="10" fill="#1a3a2a" stroke="#22c55e" stroke-width="1.5"/><circle cx="42" cy="266" r="16" fill="#22c55e" opacity="0.2"/><text x="42" y="271" font-size="14" fill="#22c55e" text-anchor="middle" font-weight="700" font-family="'Segoe UI',system-ui,sans-serif">2</text><text x="66" y="270" font-size="14" fill="#f1f5f9" text-anchor="start" font-weight="600" font-family="'Segoe UI',system-ui,sans-serif">Intake Gateway</text><line x1="32" y1="284" x2="1252" y2="284" stroke="#22c55e" stroke-width="0.8" opacity="0.5"/><rect x="32" y="294" width="241" height="68" rx="6" fill="#1a3a2add" stroke="#22c55e" stroke-width="1.5"/><circle cx="42" cy="328" r="3" fill="#22c55e" opacity="0.8"/><text x="52" y="332" font-size="10.5" fill="#f1f5f9" text-anchor="start" font-weight="normal" font-family="'Segoe UI',system-ui,sans-serif">POST /api/webhooks/git</text><rect x="281" y="294" width="241" height="68" rx="6" fill="#1a3a2add" stroke="#22c55e" stroke-width="1.5"/><circle cx="291" cy="328" r="3" fill="#22c55e" opacity="0.8"/><text x="301" y="323" font-size="10" fill="#f1f5f9" text-anchor="start" font-weight="normal" font-family="'Segoe UI',system-ui,sans-serif">Auth &amp;</text><text x="301" y="337" font-size="10" fill="#f1f5f9" text-anchor="start" font-weight="normal" font-family="'Segoe UI',system-ui,sans-serif">HMAC Verify</text><rect x="530" y="294" width="241" height="68" rx="6" fill="#1a3a2add" stroke="#22c55e" stroke-width="1.5"/><circle cx="540" cy="328" r="3" fill="#22c55e" opacity="0.8"/><text x="550" y="323" font-size="10" fill="#f1f5f9" text-anchor="start" font-weight="normal" font-family="'Segoe UI',system-ui,sans-serif">Dedup Cache</text><text x="550" y="337" font-size="10" fill="#f1f5f9" text-anchor="start" font-weight="normal" font-family="'Segoe UI',system-ui,sans-serif">(60s)</text><rect x="779" y="294" width="241" height="68" rx="6" fill="#1a3a2add" stroke="#22c55e" stroke-width="1.5"/><circle cx="789" cy="328" r="3" fill="#22c55e" opacity="0.8"/><text x="799" y="332" font-size="10.5" fill="#f1f5f9" text-anchor="start" font-weight="normal" font-family="'Segoe UI',system-ui,sans-serif">Repo Lookup</text><rect x="1028" y="294" width="241" height="68" rx="6" fill="#1a3a2add" stroke="#22c55e" stroke-width="1.5"/><circle cx="1038" cy="328" r="3" fill="#22c55e" opacity="0.8"/><text x="1048" y="323" font-size="10" fill="#f1f5f9" text-anchor="start" font-weight="normal" font-family="'Segoe UI',system-ui,sans-serif">Agent Config</text><text x="1048" y="337" font-size="10" fill="#f1f5f9" text-anchor="start" font-weight="normal" font-family="'Segoe UI',system-ui,sans-serif">Fetch</text><rect x="20" y="384" width="1264" height="130" rx="10" fill="#3a2a1a" stroke="#f97316" stroke-width="1.5"/><circle cx="42" cy="408" r="16" fill="#f97316" opacity="0.2"/><text x="42" y="413" font-size="14" fill="#f97316" text-anchor="middle" font-weight="700" font-family="'Segoe UI',system-ui,sans-serif">3</text><text x="66" y="412" font-size="14" fill="#f1f5f9" text-anchor="start" font-weight="600" font-family="'Segoe UI',system-ui,sans-serif">Git Agent Engine</text><line x1="32" y1="426" x2="1252" y2="426" stroke="#f97316" stroke-width="0.8" opacity="0.5"/><rect x="32" y="436" width="241" height="68" rx="6" fill="#3a2a1add" stroke="#f97316" stroke-width="1.5"/><circle cx="42" cy="470" r="3" fill="#f97316" opacity="0.8"/><text x="52" y="474" font-size="10.5" fill="#f1f5f9" text-anchor="start" font-weight="normal" font-family="'Segoe UI',system-ui,sans-serif">Parse .nanoorch.yml</text><rect x="281" y="436" width="241" height="68" rx="6" fill="#3a2a1add" stroke="#f97316" stroke-width="1.5"/><circle cx="291" cy="470" r="3" fill="#f97316" opacity="0.8"/><text x="301" y="465" font-size="10" fill="#f1f5f9" text-anchor="start" font-weight="normal" font-family="'Segoe UI',system-ui,sans-serif">Clone Repo</text><text x="301" y="479" font-size="10" fill="#f1f5f9" text-anchor="start" font-weight="normal" font-family="'Segoe UI',system-ui,sans-serif">(OAuth2)</text><rect x="530" y="436" width="241" height="68" rx="6" fill="#3a2a1add" stroke="#f97316" stroke-width="1.5"/><circle cx="540" cy="470" r="3" fill="#f97316" opacity="0.8"/><text x="550" y="465" font-size="10" fill="#f1f5f9" text-anchor="start" font-weight="normal" font-family="'Segoe UI',system-ui,sans-serif">Resolve Trigger</text><text x="550" y="479" font-size="10" fill="#f1f5f9" text-anchor="start" font-weight="normal" font-family="'Segoe UI',system-ui,sans-serif">Rules</text><rect x="779" y="436" width="241" height="68" rx="6" fill="#3a2a1add" stroke="#f97316" stroke-width="1.5"/><circle cx="789" cy="470" r="3" fill="#f97316" opacity="0.8"/><text x="799" y="465" font-size="10" fill="#f1f5f9" text-anchor="start" font-weight="normal" font-family="'Segoe UI',system-ui,sans-serif">Build Prompt</text><text x="799" y="479" font-size="10" fill="#f1f5f9" text-anchor="start" font-weight="normal" font-family="'Segoe UI',system-ui,sans-serif">Context</text><rect x="1028" y="436" width="241" height="68" rx="6" fill="#3a2a1add" stroke="#f97316" stroke-width="1.5"/><circle cx="1038" cy="470" r="3" fill="#f97316" opacity="0.8"/><text x="1048" y="465" font-size="10" fill="#f1f5f9" text-anchor="start" font-weight="normal" font-family="'Segoe UI',system-ui,sans-serif">Inject into</text><text x="1048" y="479" font-size="10" fill="#f1f5f9" text-anchor="start" font-weight="normal" font-family="'Segoe UI',system-ui,sans-serif">Task.input</text><rect x="20" y="526" width="1264" height="130" rx="10" fill="#2a1a3a" stroke="#a855f7" stroke-width="1.5"/><circle cx="42" cy="550" r="16" fill="#a855f7" opacity="0.2"/><text x="42" y="555" font-size="14" fill="#a855f7" text-anchor="middle" font-weight="700" font-family="'Segoe UI',system-ui,sans-serif">4</text><text x="66" y="554" font-size="14" fill="#f1f5f9" text-anchor="start" font-weight="600" font-family="'Segoe UI',system-ui,sans-serif">Task Queue</text><line x1="32" y1="568" x2="1252" y2="568" stroke="#a855f7" stroke-width="0.8" opacity="0.5"/><rect x="32" y="578" width="241" height="68" rx="6" fill="#2a1a3add" stroke="#a855f7" stroke-width="1.5"/><circle cx="42" cy="612" r="3" fill="#a855f7" opacity="0.8"/><text x="52" y="607" font-size="10" fill="#f1f5f9" text-anchor="start" font-weight="normal" font-family="'Segoe UI',system-ui,sans-serif">Task.status =</text><text x="52" y="621" font-size="10" fill="#f1f5f9" text-anchor="start" font-weight="normal" font-family="'Segoe UI',system-ui,sans-serif">queued</text><rect x="281" y="578" width="241" height="68" rx="6" fill="#2a1a3add" stroke="#a855f7" stroke-width="1.5"/><circle cx="291" cy="612" r="3" fill="#a855f7" opacity="0.8"/><text x="301" y="616" font-size="10.5" fill="#f1f5f9" text-anchor="start" font-weight="normal" font-family="'Segoe UI',system-ui,sans-serif">Priority Scheduling</text><rect x="530" y="578" width="241" height="68" rx="6" fill="#2a1a3add" stroke="#a855f7" stroke-width="1.5"/><circle cx="540" cy="612" r="3" fill="#a855f7" opacity="0.8"/><text x="550" y="616" font-size="10.5" fill="#f1f5f9" text-anchor="start" font-weight="normal" font-family="'Segoe UI',system-ui,sans-serif">Workspace Assignment</text><rect x="779" y="578" width="241" height="68" rx="6" fill="#2a1a3add" stroke="#a855f7" stroke-width="1.5"/><circle cx="789" cy="612" r="3" fill="#a855f7" opacity="0.8"/><text x="799" y="616" font-size="10.5" fill="#f1f5f9" text-anchor="start" font-weight="normal" font-family="'Segoe UI',system-ui,sans-serif">Agent Router</text><rect x="1028" y="578" width="241" height="68" rx="6" fill="#2a1a3add" stroke="#a855f7" stroke-width="1.5"/><circle cx="1038" cy="612" r="3" fill="#a855f7" opacity="0.8"/><text x="1048" y="607" font-size="10" fill="#f1f5f9" text-anchor="start" font-weight="normal" font-family="'Segoe UI',system-ui,sans-serif">Run History</text><text x="1048" y="621" font-size="10" fill="#f1f5f9" text-anchor="start" font-weight="normal" font-family="'Segoe UI',system-ui,sans-serif">Record</text><rect x="20" y="668" width="1264" height="130" rx="10" fill="#3a1a1a" stroke="#ef4444" stroke-width="1.5"/><circle cx="42" cy="692" r="16" fill="#ef4444" opacity="0.2"/><text x="42" y="697" font-size="14" fill="#ef4444" text-anchor="middle" font-weight="700" font-family="'Segoe UI',system-ui,sans-serif">5</text><text x="66" y="696" font-size="14" fill="#f1f5f9" text-anchor="start" font-weight="600" font-family="'Segoe UI',system-ui,sans-serif">Execution Layer</text><line x1="32" y1="710" x2="1252" y2="710" stroke="#ef4444" stroke-width="0.8" opacity="0.5"/><rect x="32" y="720" width="241" height="68" rx="6" fill="#3a1a1add" stroke="#ef4444" stroke-width="1.5"/><circle cx="42" cy="754" r="3" fill="#ef4444" opacity="0.8"/><text x="52" y="758" font-size="10.5" fill="#f1f5f9" text-anchor="start" font-weight="normal" font-family="'Segoe UI',system-ui,sans-serif">Sandbox Executor</text><rect x="281" y="720" width="241" height="68" rx="6" fill="#3a1a1add" stroke="#ef4444" stroke-width="1.5"/><circle cx="291" cy="754" r="3" fill="#ef4444" opacity="0.8"/><text x="301" y="749" font-size="10" fill="#f1f5f9" text-anchor="start" font-weight="normal" font-family="'Segoe UI',system-ui,sans-serif">Tool Call</text><text x="301" y="763" font-size="10" fill="#f1f5f9" text-anchor="start" font-weight="normal" font-family="'Segoe UI',system-ui,sans-serif">Handler</text><rect x="530" y="720" width="241" height="68" rx="6" fill="#3a1a1add" stroke="#ef4444" stroke-width="1.5"/><circle cx="540" cy="754" r="3" fill="#ef4444" opacity="0.8"/><text x="550" y="758" font-size="10.5" fill="#f1f5f9" text-anchor="start" font-weight="normal" font-family="'Segoe UI',system-ui,sans-serif">Memory Read/Write</text><rect x="779" y="720" width="241" height="68" rx="6" fill="#3a1a1add" stroke="#ef4444" stroke-width="1.5"/><circle cx="789" cy="754" r="3" fill="#ef4444" opacity="0.8"/><text x="799" y="758" font-size="10.5" fill="#f1f5f9" text-anchor="start" font-weight="normal" font-family="'Segoe UI',system-ui,sans-serif">Max-Steps Guard</text><rect x="1028" y="720" width="241" height="68" rx="6" fill="#3a1a1add" stroke="#ef4444" stroke-width="1.5"/><circle cx="1038" cy="754" r="3" fill="#ef4444" opacity="0.8"/><text x="1048" y="758" font-size="10.5" fill="#f1f5f9" text-anchor="start" font-weight="normal" font-family="'Segoe UI',system-ui,sans-serif">Sub-Agent Spawner</text><rect x="20" y="810" width="1264" height="130" rx="10" fill="#1a2a3a" stroke="#06b6d4" stroke-width="1.5"/><circle cx="42" cy="834" r="16" fill="#06b6d4" opacity="0.2"/><text x="42" y="839" font-size="14" fill="#06b6d4" text-anchor="middle" font-weight="700" font-family="'Segoe UI',system-ui,sans-serif">6</text><text x="66" y="838" font-size="14" fill="#f1f5f9" text-anchor="start" font-weight="600" font-family="'Segoe UI',system-ui,sans-serif">AI Providers</text><line x1="32" y1="852" x2="1252" y2="852" stroke="#06b6d4" stroke-width="0.8" opacity="0.5"/><rect x="32" y="862" width="241" height="68" rx="6" fill="#1a2a3add" stroke="#06b6d4" stroke-width="1.5"/><circle cx="42" cy="896" r="3" fill="#06b6d4" opacity="0.8"/><text x="52" y="900" font-size="10.5" fill="#f1f5f9" text-anchor="start" font-weight="normal" font-family="'Segoe UI',system-ui,sans-serif">OpenAI (GPT-4o)</text><rect x="281" y="862" width="241" height="68" rx="6" fill="#1a2a3add" stroke="#06b6d4" stroke-width="1.5"/><circle cx="291" cy="896" r="3" fill="#06b6d4" opacity="0.8"/><text x="301" y="900" font-size="10.5" fill="#f1f5f9" text-anchor="start" font-weight="normal" font-family="'Segoe UI',system-ui,sans-serif">Anthropic (Claude)</text><rect x="530" y="862" width="241" height="68" rx="6" fill="#1a2a3add" stroke="#06b6d4" stroke-width="1.5"/><circle cx="540" cy="896" r="3" fill="#06b6d4" opacity="0.8"/><text x="550" y="900" font-size="10.5" fill="#f1f5f9" text-anchor="start" font-weight="normal" font-family="'Segoe UI',system-ui,sans-serif">Google (Gemini)</text><rect x="779" y="862" width="241" height="68" rx="6" fill="#1a2a3add" stroke="#06b6d4" stroke-width="1.5"/><circle cx="789" cy="896" r="3" fill="#06b6d4" opacity="0.8"/><text x="799" y="900" font-size="10.5" fill="#f1f5f9" text-anchor="start" font-weight="normal" font-family="'Segoe UI',system-ui,sans-serif">Provider Router</text><rect x="1028" y="862" width="241" height="68" rx="6" fill="#1a2a3add" stroke="#06b6d4" stroke-width="1.5"/><circle cx="1038" cy="896" r="3" fill="#06b6d4" opacity="0.8"/><text x="1048" y="891" font-size="10" fill="#f1f5f9" text-anchor="start" font-weight="normal" font-family="'Segoe UI',system-ui,sans-serif">Token Usage</text><text x="1048" y="905" font-size="10" fill="#f1f5f9" text-anchor="start" font-weight="normal" font-family="'Segoe UI',system-ui,sans-serif">Tracker</text><rect x="20" y="952" width="1264" height="130" rx="10" fill="#2a3a1a" stroke="#84cc16" stroke-width="1.5"/><circle cx="42" cy="976" r="16" fill="#84cc16" opacity="0.2"/><text x="42" y="981" font-size="14" fill="#84cc16" text-anchor="middle" font-weight="700" font-family="'Segoe UI',system-ui,sans-serif">7</text><text x="66" y="980" font-size="14" fill="#f1f5f9" text-anchor="start" font-weight="600" font-family="'Segoe UI',system-ui,sans-serif">Intelligence &amp; Memory</text><line x1="32" y1="994" x2="1252" y2="994" stroke="#84cc16" stroke-width="0.8" opacity="0.5"/><rect x="32" y="1004" width="241" height="68" rx="6" fill="#2a3a1add" stroke="#84cc16" stroke-width="1.5"/><circle cx="42" cy="1038" r="3" fill="#84cc16" opacity="0.8"/><text x="52" y="1042" font-size="10.5" fill="#f1f5f9" text-anchor="start" font-weight="normal" font-family="'Segoe UI',system-ui,sans-serif">Vector Store</text><rect x="281" y="1004" width="241" height="68" rx="6" fill="#2a3a1add" stroke="#84cc16" stroke-width="1.5"/><circle cx="291" cy="1038" r="3" fill="#84cc16" opacity="0.8"/><text x="301" y="1042" font-size="10.5" fill="#f1f5f9" text-anchor="start" font-weight="normal" font-family="'Segoe UI',system-ui,sans-serif">Conversation History</text><rect x="530" y="1004" width="241" height="68" rx="6" fill="#2a3a1add" stroke="#84cc16" stroke-width="1.5"/><circle cx="540" cy="1038" r="3" fill="#84cc16" opacity="0.8"/><text x="550" y="1042" font-size="10.5" fill="#f1f5f9" text-anchor="start" font-weight="normal" font-family="'Segoe UI',system-ui,sans-serif">Knowledge Base</text><rect x="779" y="1004" width="241" height="68" rx="6" fill="#2a3a1add" stroke="#84cc16" stroke-width="1.5"/><circle cx="789" cy="1038" r="3" fill="#84cc16" opacity="0.8"/><text x="799" y="1042" font-size="10.5" fill="#f1f5f9" text-anchor="start" font-weight="normal" font-family="'Segoe UI',system-ui,sans-serif">Contextual Recall</text><rect x="1028" y="1004" width="241" height="68" rx="6" fill="#2a3a1add" stroke="#84cc16" stroke-width="1.5"/><circle cx="1038" cy="1038" r="3" fill="#84cc16" opacity="0.8"/><text x="1048" y="1042" font-size="10.5" fill="#f1f5f9" text-anchor="start" font-weight="normal" font-family="'Segoe UI',system-ui,sans-serif">Learning Loop</text><rect x="20" y="1094" width="1264" height="130" rx="10" fill="#3a1a2a" stroke="#ec4899" stroke-width="1.5"/><circle cx="42" cy="1118" r="16" fill="#ec4899" opacity="0.2"/><text x="42" y="1123" font-size="14" fill="#ec4899" text-anchor="middle" font-weight="700" font-family="'Segoe UI',system-ui,sans-serif">8</text><text x="66" y="1122" font-size="14" fill="#f1f5f9" text-anchor="start" font-weight="600" font-family="'Segoe UI',system-ui,sans-serif">Outputs &amp; Feedback</text><line x1="32" y1="1136" x2="1252" y2="1136" stroke="#ec4899" stroke-width="0.8" opacity="0.5"/><rect x="32" y="1146" width="241" height="68" rx="6" fill="#3a1a2add" stroke="#ec4899" stroke-width="1.5"/><circle cx="42" cy="1180" r="3" fill="#ec4899" opacity="0.8"/><text x="52" y="1175" font-size="10" fill="#f1f5f9" text-anchor="start" font-weight="normal" font-family="'Segoe UI',system-ui,sans-serif">Task Result</text><text x="52" y="1189" font-size="10" fill="#f1f5f9" text-anchor="start" font-weight="normal" font-family="'Segoe UI',system-ui,sans-serif">Store</text><rect x="281" y="1146" width="241" height="68" rx="6" fill="#3a1a2add" stroke="#ec4899" stroke-width="1.5"/><circle cx="291" cy="1180" r="3" fill="#ec4899" opacity="0.8"/><text x="301" y="1184" font-size="10.5" fill="#f1f5f9" text-anchor="start" font-weight="normal" font-family="'Segoe UI',system-ui,sans-serif">Git PR Comment</text><rect x="530" y="1146" width="241" height="68" rx="6" fill="#3a1a2add" stroke="#ec4899" stroke-width="1.5"/><circle cx="540" cy="1180" r="3" fill="#ec4899" opacity="0.8"/><text x="550" y="1184" font-size="10.5" fill="#f1f5f9" text-anchor="start" font-weight="normal" font-family="'Segoe UI',system-ui,sans-serif">Run Log Stream</text><rect x="779" y="1146" width="241" height="68" rx="6" fill="#3a1a2add" stroke="#ec4899" stroke-width="1.5"/><circle cx="789" cy="1180" r="3" fill="#ec4899" opacity="0.8"/><text x="799" y="1184" font-size="10.5" fill="#f1f5f9" text-anchor="start" font-weight="normal" font-family="'Segoe UI',system-ui,sans-serif">Developer Feedback</text><rect x="1028" y="1146" width="241" height="68" rx="6" fill="#3a1a2add" stroke="#ec4899" stroke-width="1.5"/><circle cx="1038" cy="1180" r="3" fill="#ec4899" opacity="0.8"/><text x="1048" y="1184" font-size="10.5" fill="#f1f5f9" text-anchor="start" font-weight="normal" font-family="'Segoe UI',system-ui,sans-serif">Webhook Callback</text><rect x="0" y="1258" width="1600" height="46" fill="#0f172a"/><line x1="0" y1="1258" x2="1600" y2="1258" stroke="#334155" stroke-width="1"/><text x="20" y="1280" font-size="11" fill="#64748b" text-anchor="start" font-weight="normal" font-family="'Segoe UI',system-ui,sans-serif">NanoOrch · Self-hosted AI Agent Orchestrator</text><text x="1580" y="1280" font-size="11" fill="#64748b" text-anchor="end" font-weight="normal" font-family="'Segoe UI',system-ui,sans-serif">Self-hosted · Multi-tenant · 3-tier RBAC · Git Agents · Developer Feedback Loop</text></svg>